<?xml version="1.0" encoding="UTF-8"?>
<svg id="Layer_1" xmlns="http://www.w3.org/2000/svg" version="1.1" xmlns:cc="http://creativecommons.org/ns#" xmlns:dc="http://purl.org/dc/elements/1.1/" xmlns:inkscape="http://www.inkscape.org/namespaces/inkscape" xmlns:rdf="http://www.w3.org/1999/02/22-rdf-syntax-ns#" xmlns:sodipodi="http://sodipodi.sourceforge.net/DTD/sodipodi-0.dtd" xmlns:svg="http://www.w3.org/2000/svg" viewBox="0 0 595.3 841.9">
  <!-- Generator: Adobe Illustrator 29.3.1, SVG Export Plug-In . SVG Version: 2.1.0 Build 151)  -->
  <defs>
    <style>
      .st0 {
        fill: #00566c;
      }

      .st1 {
        fill: #7fff3e;
        isolation: isolate;
        opacity: .5;
      }

      .st2, .st3 {
        fill: #00aad4;
      }

      .st3 {
        stroke: #000;
        stroke-miterlimit: 4.7;
        stroke-width: .3px;
      }
    </style>
  </defs>
  <g id="svg1460" sodipodi:docname="logo-preliminary.svg">
    <g>
      <sodipodi:namedview id="base" bordercolor="#666666" borderopacity="1.0" inkscape:current-layer="layer1" inkscape:cx="456.54046" inkscape:cy="498.36563" inkscape:document-rotation="0" inkscape:document-units="mm" inkscape:pageopacity="0.0" inkscape:pageshadow="2" inkscape:window-height="991" inkscape:window-maximized="1" inkscape:window-width="1920" inkscape:window-x="-9" inkscape:window-y="-9" inkscape:zoom="0.88" pagecolor="#ffffff" showgrid="false"/>
      <path id="path33-3-1-1-9-9-8-0-7-3-9-8-9" class="st1" d="M314.5,172.8c-1.4,1.2-2.9,2.2-3.3,2.3-.4,0-2.3-.4-4-1-2.6-.9-3.4-1-4.3-.7-.7.3-1.3.3-1.8,0-1.2-.6-1.8-.5-2.3.6-.4.7-.7,1-1.6,1s-1.4.3-1.8.9l-.6.9-1.9-1c-1.7-.9-2.5-1-7.4-1.2l-5.6-.2-1.3,1.3c-1.3,1.3-1.4,1.3-5.6,1.5-5.1.2-7.1.9-7.5,2.5-.5,1.9-.9,2.2-3.2,1.9-3.2-.4-5.9.5-8.4,2.9-1.7,1.6-2.3,2-3.6,2s-2.1-.3-2.9-.6c-1.7-.7-6.4-.4-8.8.5-1.4.5-1.6.5-2.8,0-.7-.4-2.1-1.6-3.1-2.8-1-1.2-2.1-2.1-2.5-2.1-1,0-1.9,1.5-2.2,3.6-.4,2.6-4.8,9.7-7.1,11.5-1.5,1.1-6.3,3.1-9.1,3.7-2.2.5-4.7,1.5-5.6,2.3-.9.7-.9,2.1-.2,3.5.5.9.5,1.5,0,3.5-.3,1.4-.8,2.8-1.1,3.2-.9.9-.8,3.5.2,4.9,1.1,1.7,1.1,4.4-.2,6.1-.5.7-1.4,2-2,2.9-1.7,2.5-6.4,6.7-8.8,7.8-1.2.5-2.8,1-3.6,1-2.6,0-4.1.9-5,3-2.3,5.5-3.3,6.8-6.5,9.1-2.4,1.7-3.3,3.8-3.6,8.2l-.2,3.7-1.3.4c-.7.2-1.6.9-2.1,1.6-.5.7-1.3,1.7-1.9,2.4-.6.6-1.6,2.6-2.3,4.4-1.8,4.8-2.7,6.4-4.7,8.3-1.6,1.4-1.9,2.1-2.2,3.6-.4,2.7.6,5.5,2.8,7.6,1.1,1,1.7,2,1.7,2.6s.1,1.5.2,2.3c.2,1.2,0,1.6-1,2.7s-1.2,1.5-1,2.1c.3.9,2.4,3.2,3.4,3.5.5.2.5.3,0,1.2-.4.7-.5,1.7-.3,3.6.3,2.3.2,2.7-.8,4.4-1.2,2-1.7,4.1-2.1,9l-.2,3.1-1.9,1.2c-2.9,1.9-3.8,2.9-3.8,4.1s.6,2.6,2.2,4.1c1.3,1.2,1.3,1.4,1.3,4s-.2,3.7-.4,4.7c-.7,3.6,1,6.3,4.3,6.8,2.5.4,3.5,1.4,3.8,4,.2,2,.4,2.2,1.6,2.7,1.1.5,1.6,1.1,2.7,3.4.7,1.6,1.4,3.2,1.5,3.6,0,.5.5.8,1.3.9.7,0,1.8.9,3.2,2.3,2.1,2.1,2.1,2.2,1.7,3.5-.8,2.3-.2,3.8,2.4,6.3,1.3,1.3,2.7,2.9,3.2,3.8.5,1,1.2,1.6,2,1.8.9.2,1.3.7,1.6,1.6.6,1.9,3.9,5,7.4,7,3.8,2.1,5.8,4.1,6.5,6.2.5,1.4.7,1.6,2,1.7,1.1,0,1.6.4,1.9,1,.6,1.1,1.1,1.4,2.3,1.4s1.6.4,2.3.8c.7.4,1.5.8,1.9.8.6,0,4.7-2,6.8-3.3.9-.5,2.3-1,3.8-1.1,1.5-.2,2.8-.5,3.5-1.1,1.4-1.1,3.9-1.3,9.2-.8,4.5.4,7.2,1.4,9,3.1l1.1,1,1.2-.9c.7-.5,2-1.1,3-1.2.9-.2,2.5-.9,3.4-1.5.9-.6,2.3-1.3,3.2-1.5.8-.2,1.9-.8,2.4-1.3.7-.6,1.8-1,4.3-1.3,3.2-.4,3.5-.5,3.7-1.4.2-.8.6-1,2.7-1.4,2.6-.5,14.9-.7,17-.2.8.2,1.2.5,1.3,1.1,0,.5.7,1.1,1.6,1.6,1.5.7,3.5,2.8,3.6,3.6,0,.3,0,1.4.1,2.6,0,1.6.2,2.2.8,2.7,2.2,1.6,3.8,2.5,4.4,2.5s1.8-.6,3.1-1.4c2.4-1.3,2.7-1.4,6.3-1.4h3.9l2.4,2.6c3.5,3.8,4.5,6.1,4.7,10.7.1,3.1,0,4.4-.8,7.5-.5,2-1.1,4.7-1.3,6-.2,1.3-.7,3.7-1.3,5.3s-1.1,4.1-1.2,5.5c-.2,3,.6,5.4,3.2,9.2.9,1.3,2.1,3.2,2.7,4.2.5,1,1.9,2.9,3,4.1,1.1,1.2,2,2.6,2.1,3.1.1.5.3,1.3.4,1.8.1.5.7,1.1,1.4,1.5.9.4,1.3.9,1.4,1.5,0,.5.5,1.3.9,1.8,1.6,1.8,3.1,4.7,3.1,5.9s.2,1.4,1,1.8c.5.2,1,.5,1,.7s-.4.6-1,.9c-1.3.9-1.3,1.6.6,4.3.9,1.3,1.6,2.7,1.6,3.2s.8,2.5,1.8,4.5c2,4.1,2.1,5,.9,6.8-1.3,2.2-1.1,4.2.7,8.2.9,1.9,2,4.7,2.5,6.1,1.4,4.1.7,6.1-3.2,8.4-1.6,1-3.2,3.9-3.4,6.6,0,1.1-.5,2.3-.8,2.7-.4.4-.8,2.2-1.1,4.8-.4,3.4-.6,4.3-1.6,5.9-.7,1-1.3,2.6-1.4,3.5-1.3,10.8-1.5,16.4-.9,18.8.2.6,1.2,2,2.2,2.9,1.3,1.3,2.1,2.4,2.6,3.9.4,1.2,1.1,2.6,1.6,3.1,1.1,1.3,2.4,4.4,2.7,6.6.5,3.4,1.4,5.5,4.1,9.2,3,4.1,3.4,5.2,2.8,7.5-.7,2.4-.5,4.8.6,8.4.8,2.8,1,3.8.8,6.2-.2,2.4,0,3.4.5,5.2.4,1.3.8,2.8.8,3.5,0,2.2,1.3,8.4,2,9.7,2.2,4,3.4,5.7,4.4,6.3,1.6.9,3.8,6.3,3.8,9.3,0,2.5,1,5.3,2.3,5.9.5.2,1.3,1.4,1.8,2.5.5,1.1,1.4,2.6,1.9,3.4.7,1,.9,1.8.9,3.5,0,2.7-.2,3.1-2,3.2-.9,0-1.4.4-1.5.8-.3,1.5.4,3.5,1.7,4.9,1.5,1.6,1.6,2.4.7,3.2-.6.5-.5.6.2,1.2.5.4,1.5.8,2.3.9,1.1.2,2,.7,3.4,2.2,1.1,1.1,2.2,1.9,2.5,1.9s1.4-.5,2.4-1.1c1.6-1.1,5-2,8.2-2.2.8,0,2-.5,2.7-1,.8-.6,1.6-.9,2.6-.8,2.6.2,4.7.1,6.6-.2,1.2-.2,2.9-.1,4.5.2,2.6.5,2.7.5,5.6-.8,2.1-1,3.4-1.3,4.8-1.3,1.6,0,2.2-.2,3.2-1.1,1-.9,1.6-1.1,2.8-1.1,1.3,0,1.9-.2,3.4-1.5,3.6-3,9.2-8.6,10.1-10.2.8-1.3,1.3-1.7,2.7-2.1,1.3-.3,2-.8,2.7-1.7,3.9-5.4,6.8-9.7,8.7-13.1,1.8-3.2,2.5-4,3.3-4.2,1.9-.4,2-.5,2-1.8s.6-2.3,1.3-3.6c1.4-2.7,2.5-6.8,3-11.8.3-3.2.4-3.4,2-5,2-2.1,5.3-3.8,8.3-4.5,1.7-.4,2.7-.9,4.1-2.2l1.9-1.7v-3.7c0-2.3.3-4.3.7-5.4.9-2.2.8-3.2-.1-5.2-.5-1.1-.7-2-.6-2.8.2-.9,0-1.8-.5-3-.4-1-.8-2.3-.8-3.1s-.3-1.5-1-2.1c-2.2-1.9-.7-5.2,2.5-5.8,3.2-.6,3.8-1,4.3-2.7.4-1.3,1.2-2.3,3.6-4.4,1.7-1.5,3.9-3.9,5-5.2,2.2-2.8,4.7-4.5,7.9-5.2,1.7-.4,2.7-1,5.2-3.2,3.2-2.8,3.6-3.3,3.8-5.7,0-1.1.7-2,2.7-4,3.4-3.6,3.9-4.7,3.6-7.5-.2-1.2-.2-4-.2-6.3.2-13.3.3-13.9.9-15.2.9-1.7.5-3-1.3-4.1-3.8-2.5-5.6-5.1-5.6-8.5s-.4-2.2-.7-3.1c-.4-.9-.9-3-1.2-4.6-.5-3.1-.2-4.7.9-6.3,1.3-1.8.6-4.2-1.7-6.3-1.4-1.4-1.5-2.4-.4-4.5.9-1.9,1.9-2.4,4.3-2.5,1.2,0,1.8-.5,1.9-1.5.2-1.9-.4-2.9-1.9-3.2-1.4-.3-1.4-.7-.4-2,.4-.5.9-1.8,1-2.8.5-4.1.6-4.4,2.4-6.2.9-1,1.7-2,1.7-2.3s1.1-1.7,2.5-3.2c1.4-1.4,2.5-2.9,2.5-3.3,0-.7,3.5-4.8,6.4-7.4,1.1-1,2.6-2.8,3.5-4.1,3.1-4.6,11.8-12.9,16.1-15.4,3.1-1.8,4.5-3.2,5.5-5.3.7-1.5,1.9-2.9,4.8-5.6,4-3.7,4.6-4.7,5.7-8.7.4-1.4,1.3-3,2.5-4.5,2.5-3.1,2.9-3.9,3.2-6.3.2-1.1.5-2.6.9-3.3.3-.7.9-2.1,1.2-3,.7-2.1,4.1-8.2,6-10.8,1.8-2.5,2.4-4.2,2.4-7.5,0-1.6.3-3.1.6-3.7.3-.5.5-1.7.5-2.5s-.2-2-.5-2.5c-.3-.5-.5-1.5-.6-2.2,0-1.2-1-2.5-1.9-2.5s-1.1.4-1.9,1c-2.5,1.7-7.5,3.4-9.1,3.2-1-.2-2.1,0-3.4.5-1.1.4-2.8.8-3.9.8-1.6,0-2.1.2-3.3,1.4l-1.5,1.4-3.2-.2c-2.8-.2-3.6-.2-6.8.9-4.2,1.4-7.1,1.5-8.1.5-.4-.4-.9-1.6-1.3-2.7-.9-2.6-1.7-3.4-3.7-3.3-1.1,0-1.6-.1-1.9-.6-.5-1,.2-2,1.5-2s2.2-.9,1.8-2.2c-.1-.6-.4-1.8-.5-2.6-.2-1.3-.4-1.6-1.5-2.1-.7-.3-1.4-.9-1.6-1.4-.2-.5-.8-1.6-1.4-2.5-.6-.9-1.1-1.8-1.1-2,0-.7-1.4-1.6-3.1-2-1-.2-2-.5-2.4-.6-.4-.1-.9-.9-1.2-1.6-.6-1.4-3.4-4.2-5.9-5.7-.6-.4-1.8-1.3-2.7-2-.8-.7-1.7-1.3-2-1.3-.9,0-2.3-2-2-3.1.3-1.5-1.8-10-3.4-13.7-1.3-3-1.4-3.1-2.7-3.1s-1.2-.2-1.4-1.2c-.2-.9-.5-1.2-1.1-1.2-2.7,0-4.5-3.9-4.5-9.9s-.5-6.6-2.4-10.9c-2-4.3-3.6-6.4-4.9-6.7-2.6-.5-4.5-3.9-3.6-6.3.2-.6.4-1.5.4-2.2,0-.9-.2-1.2-1-1.4-1.1-.3-1.8-1.2-1.8-2.4s-2.9-6.6-4.1-7.9c-.5-.5-1.2-1.5-1.5-2.2-.4-.6-1.3-1.9-2.2-2.8-1.6-1.5-1.6-1.7-1.6-4.2s0-2.7-1.2-3.6c-4.8-4.2-9.9-13.8-8.2-15.6.2-.2-.5-2.2-1.8-5-1.2-2.5-2.1-4.8-2.1-4.9s.5-.3,1.1-.2c1.6.2.7,0-3.9-1.4-4.3-1.3-5-1.2-6.1.2-.3.3-1,.7-1.7.8-.8.2-1.4.7-2,1.6-.4.7-1.1,1.5-1.5,1.7-1.1.5-3.1.5-5.4-.2-1.1-.3-2.9-.8-4.1-1-1.2-.2-2.6-.8-3.2-1.2-.6-.5-2.7-1.1-4.7-1.5-2-.4-3.9-.9-4.3-1-.4-.2-.8,0-1.2.5-.8,1.3-1.4,1-2.7-1.1-.6-1.1-1.5-2-1.8-2.1-.4,0-2.7-.3-5.2-.4-5.8-.3-5.9-.4-5.9-1.9s-1-2.6-2.8-2.9c-.9-.2-1.5-.6-1.9-1.4-1-1.8-2.7-1.8-4.7,0-1.1.9-2.4,1.6-4.1,2.2-3.1.9-3.5,1.2-4.1,2.9-.4,1.1-.3,1.7.4,3.6.4,1.3.8,2.7.8,3.2,0,1.7-1.2,3.6-2.9,4.6-2.3,1.3-3.6,1.3-5.9-.4-3.9-2.9-4.1-2.9-6.7-2.9s-4.1-.5-9-2.5c-1.5-.7-3-2.6-3.6-4.7-1-3.2-1.7-3.7-6.2-4-2.8-.2-3.1-.3-4.3-1.6-1.1-1.2-1.8-1.4-4.1-1.9-1.6-.3-3.6-.5-4.6-.5-3,0-4.7-.7-5.6-2.2-.8-1.4-1.3-1.6-2.2-1-.4.3-.9,0-1.7-.6-.6-.5-1.3-.9-1.4-.9s-.5-.5-.8-1.1c-.7-1.6.2-3.2,2-3.8.9-.3,1.5-.8,1.8-1.5.2-.5.8-1.4,1.3-1.8,1.4-1.3,1.2-3.2-.7-5.1-1.4-1.3-1.6-1.8-1.6-3.2s.3-2.1,1.4-3.5c1.3-1.7,1.5-2.6.4-2.6s-.9.4-1.4,1l-.9,1-2-1.9c-3.6-3.4-4.3-3.5-7.6-.7h0Z" sodipodi:nodetypes="ccccccsccccccccccsccccscccccccccccscccccccccccscscsccccccscscccccccccccccccccsssccccccccccccccccccccscscccssscccccccccscsccsccccccccccccccccccccsccccccscccccccsccccccccccccccccscccccccccscscccccccccccccscccccccccccssscccccccccccccsscscccscccccccsscccccscccccsccscsscccscscccscccscccccccccccccccsccccccsccscccccccccscccccscsccccc"/>
      <path id="path3836-2-1-5-9-0" class="st2" d="M393.2,528.6l11,4.3c13.1,3.6,23.5,23.7,36.6,27.5,32,9.4,67.4,12,99.9,3.6-3,6.1-10.7,10.3-16.4,13.8-16.8,10.1-35.6,15.1-54.9,17.6-45.1,5.9-91.6-3.4-135.1-14.9-25.5-6.7-53.4-19.4-80.3-16.2-15.1,1.8-31,6.2-41.6,17.8-5.6,6.1-9.7,14-5.8,22.1,4.4,9.1,15.2,14.7,24.5,9,5.9-3.6,9.3-10,14.7-14.2,10-7.7,26.2-7.9,33.6,3.5,11,17-7.9,34.4-24.6,35.2-35.1,1.6-66.3-22-99.1-30.6-7.2-1.9-14.7-2.6-22.1-2-26.5,1.8-75.1,20.5-87.7-15.6-1.5-4.3-1.6-8.6-1.6-13.1,0-7.1,1.3-13.6,3.3-20.5h.8c0,21.6,12.5,37.7,35.2,30.4,27.4-8.8,70.2-47.2,120.2-40.4h0M580,496.1c-5.6,37.3-53.2,49.4-84.4,41.8v-.8c32.1-1.5,56.6-29,84.4-40.9M461.2,628.8c-7.4,13.6-28.6,17.2-42.6,17.2-30,0-59.9-8.9-86-23.8-8.8-5-19.4-10.5-25.4-18.8,12.7,1.7,25.3,6.7,37.7,9.9,24.1,6.3,48.2,11.8,72.9,14.9,13.8,1.7,29.7,3.8,43.4.6h0Z" sodipodi:nodetypes="ccscssssssssssscssccsccccccssscssss"/>
      <g id="g3199-81-2-5-3-5-0-1-85-1-4">
        <path id="path2304-0-8-5-0-5-1-1-6-8-0-5" class="st3" d="M214.7,558.5L11.3,351.9l12.6-3.4,47.7,42.6s13.2,4.7,40.7,12.8c27.4,8.1,66.3,17.8,72.7,19.5,12.9,3.5,21.8,5.7,32.8,8.2,6.4,1.5,19.2,4.2,19.2,4.2,0,0,28.7,7.5,29.1,7.6.4.1,40,7.9,40,7.9l34.7,7,22.8,3.2,15.7,2.3,22.3,1.9,20.8.5,26.2.6h21.6l22.8-1.3,22.7-1.3,26.6-3.3,12.9-1.9,15.2-4,9.1-6,4.5-3-11.9,32.8-24.2,9.6-18.1,5.5-30.5,8.4-33.5,9.6-49.9,11.2-52.4,11.1-99.5,17.8-49.1,6.5h0Z" sodipodi:nodetypes="ccccssacccccccccccccccccccccccccc"/>
        <path id="path2306-4-48-7-9-2-8-8-0-5-2-4" class="st0" d="M584,446l-31,.6-15.3,2.9s-23.3,4-24.3,4.2c-3.2.4-28.8,2.4-31.7,2.6-7.4.6-23.2.2-23.2.2-1.3.1-75.7,1.3-75.7,1.3l-33.9-.9c-.7,0-14.8-.7-14.8-.7h-6.6c0-.1,48.5,7.2,48.5,7.2l24.9,2.4,44.2,1h25.1c0,.1,47.3-2.5,47.3-2.5l33.9-4.4,19-4.7,13.6-9.1" sodipodi:nodetypes="cccssscscccccccccc"/>
      </g>
    </g>
  </g>
</svg>