<?xml version="1.0" encoding="UTF-8"?>
<svg xmlns="http://www.w3.org/2000/svg" version="1.1" xmlns:cc="http://creativecommons.org/ns#" xmlns:dc="http://purl.org/dc/elements/1.1/" xmlns:inkscape="http://www.inkscape.org/namespaces/inkscape" xmlns:rdf="http://www.w3.org/1999/02/22-rdf-syntax-ns#" xmlns:sodipodi="http://sodipodi.sourceforge.net/DTD/sodipodi-0.dtd" xmlns:svg="http://www.w3.org/2000/svg" viewBox="0 0 595.276 841.89">
  <!-- Generator: Adobe Illustrator 29.3.1, SVG Export Plug-In . SVG Version: 2.1.0 Build 151)  -->
  <defs>
    <style>
      .st0 {
        stroke: #000;
        stroke-miterlimit: 4.669;
        stroke-width: .309px;
      }

      .st0, .st1 {
        fill: #00aad4;
      }

      .st2 {
        fill: #7fff3e;
        isolation: isolate;
        opacity: .525;
      }

      .st3 {
        fill: #00566c;
      }
    </style>
  </defs>
  <g id="svg1460" sodipodi:docname="logo-preliminary.svg">
    <g>
      <sodipodi:namedview id="base" bordercolor="#666666" borderopacity="1.0" inkscape:current-layer="layer1" inkscape:cx="456.54046" inkscape:cy="498.36563" inkscape:document-rotation="0" inkscape:document-units="mm" inkscape:pageopacity="0.0" inkscape:pageshadow="2" inkscape:window-height="991" inkscape:window-maximized="1" inkscape:window-width="1920" inkscape:window-x="-9" inkscape:window-y="-9" inkscape:zoom="0.88" pagecolor="#ffffff" showgrid="false"/>
      <path id="path33-3-1-1-9-9-8-0-7-3-9-8-9" class="st2" d="M304.052,326.669c-.52.446-1.084.832-1.263.862-.163.029-.861-.134-1.515-.371-.98-.327-1.292-.371-1.619-.253-.253.104-.49.104-.668,0-.446-.238-.683-.178-.862.223-.134.267-.282.371-.609.371-.282,0-.52.119-.668.327l-.223.327-.713-.386c-.639-.342-.936-.386-2.822-.461l-2.109-.074-.49.475c-.49.475-.535.49-2.124.564-1.946.089-2.688.357-2.837.965-.178.728-.342.817-1.203.713-1.203-.149-2.243.208-3.194,1.114-.654.624-.876.743-1.352.743-.312,0-.802-.104-1.114-.238-.653-.267-2.421-.164-3.357.208-.52.208-.609.208-1.055-.029-.267-.149-.802-.624-1.188-1.069-.371-.446-.802-.802-.951-.802-.371,0-.728.579-.847,1.367-.149.995-1.812,3.699-2.689,4.367-.579.431-2.377,1.173-3.446,1.396-.817.178-1.768.564-2.124.862-.327.267-.342.787-.059,1.337.178.357.178.564.014,1.337-.104.52-.297,1.055-.431,1.203-.327.357-.297,1.322.059,1.872.431.654.401,1.678-.074,2.317-.193.282-.55.772-.772,1.114-.654.951-2.436,2.54-3.327,2.956-.446.193-1.055.371-1.367.371-.98,0-1.56.342-1.901,1.144-.891,2.079-1.248,2.599-2.466,3.461-.921.654-1.263,1.426-1.367,3.119l-.089,1.396-.49.149c-.282.074-.624.342-.802.594-.178.253-.505.654-.728.906-.223.238-.609.995-.862,1.664-.668,1.842-1.01,2.436-1.797,3.164-.594.55-.728.787-.817,1.367-.149,1.01.238,2.079,1.055,2.882.401.386.654.758.654.98,0,.178.045.579.089.876.075.46.03.609-.371,1.01-.357.357-.446.564-.386.802.104.357.921,1.203,1.277,1.322.178.059.178.119,0,.46-.149.267-.178.639-.104,1.352.104.876.074,1.025-.297,1.664-.446.757-.639,1.575-.787,3.401l-.089,1.188-.713.461c-1.099.713-1.441,1.099-1.441,1.574,0,.564.223.98.832,1.545.475.446.505.52.505,1.515,0,.579-.074,1.396-.163,1.797-.282,1.352.371,2.391,1.619,2.585.936.163,1.322.55,1.441,1.515.089.758.134.847.594,1.025.401.178.594.431,1.025,1.307.282.594.535,1.218.564,1.381.029.208.178.312.475.342.267.029.698.342,1.233.862.802.802.802.817.639,1.337-.297.876-.089,1.426.906,2.391.49.475,1.04,1.114,1.218,1.426.208.371.46.594.758.668.342.089.505.253.624.594.238.728,1.471,1.886,2.822,2.644,1.426.802,2.198,1.545,2.466,2.362.178.535.253.594.743.639.401.029.609.149.728.371.223.431.416.55.876.55.208,0,.594.134.862.297.267.164.579.297.713.297.238,0,1.768-.743,2.57-1.262.327-.208.891-.371,1.426-.431.564-.059,1.055-.208,1.337-.416.55-.416,1.471-.49,3.505-.297,1.708.164,2.748.52,3.431,1.173l.401.371.46-.327c.267-.193.772-.401,1.144-.461.356-.074.936-.327,1.277-.564.342-.238.891-.505,1.203-.579.312-.089.728-.312.906-.475.253-.238.683-.371,1.649-.49,1.203-.163,1.322-.208,1.396-.55.074-.312.223-.386,1.04-.535.995-.193,5.659-.253,6.461-.074.312.059.46.193.49.431.029.208.253.431.609.624.579.282,1.337,1.055,1.367,1.381.014.104.029.535.045.98.014.609.089.847.312,1.01.847.594,1.456.936,1.664.936.134,0,.668-.238,1.188-.52.906-.49,1.01-.52,2.406-.52h1.471l.906.98c1.322,1.456,1.708,2.317,1.768,4.07.045,1.173,0,1.678-.312,2.837-.208.772-.416,1.797-.475,2.287-.059.49-.267,1.396-.475,2.005-.208.609-.401,1.545-.446,2.08-.089,1.144.223,2.035,1.218,3.491.342.49.802,1.203,1.025,1.589.208.386.728,1.084,1.144,1.56.401.46.772.995.802,1.188.045.193.104.49.149.683.045.208.253.431.55.564.327.134.505.327.535.579.029.208.178.505.327.668.594.668,1.188,1.782,1.188,2.258,0,.386.089.535.371.668.208.089.371.208.371.267s-.163.223-.371.357c-.505.327-.475.609.223,1.634.327.475.594,1.025.594,1.218,0,.178.297.951.668,1.708.758,1.545.802,1.886.356,2.599-.49.817-.431,1.589.267,3.104.327.728.758,1.768.936,2.302.55,1.545.253,2.332-1.203,3.193-.624.371-1.203,1.485-1.292,2.495-.029.431-.178.891-.297,1.04-.149.163-.297.832-.416,1.812-.149,1.307-.238,1.649-.624,2.228-.253.386-.49.98-.535,1.322-.475,4.1-.564,6.238-.342,7.13.074.238.446.743.832,1.114.505.49.787.921.98,1.5.134.446.401.98.594,1.188.416.475.906,1.664,1.04,2.525.178,1.277.55,2.079,1.56,3.505,1.129,1.575,1.277,1.99,1.055,2.837-.253.906-.193,1.827.223,3.179.312,1.055.371,1.426.297,2.362-.074.906-.029,1.292.208,1.961.164.475.297,1.069.297,1.322,0,.847.49,3.179.772,3.698.832,1.515,1.277,2.154,1.678,2.377.624.342,1.456,2.391,1.426,3.535-.014.936.386,2.005.876,2.258.178.089.49.52.698.936.193.431.52.995.728,1.277.282.386.357.698.357,1.337,0,1.025-.089,1.173-.743,1.233-.356.029-.535.134-.564.312-.119.579.149,1.322.653,1.872.564.624.624.921.267,1.218-.223.178-.208.223.089.46.178.149.579.312.891.357.416.074.757.282,1.277.817.401.401.832.728.951.728.134,0,.535-.193.906-.431.624-.416,1.886-.757,3.119-.832.297-.029.758-.193,1.01-.386.312-.238.624-.327.98-.297.98.074,1.782.045,2.51-.059.446-.074,1.099-.045,1.708.074.995.178,1.01.178,2.109-.312.802-.371,1.292-.49,1.842-.475.609.014.817-.059,1.218-.416.386-.327.624-.416,1.069-.401.475.014.713-.089,1.292-.564,1.381-1.144,3.491-3.253,3.847-3.862.297-.505.475-.639,1.025-.787.475-.119.772-.312,1.025-.654,1.485-2.035,2.57-3.669,3.298-4.976.683-1.203.936-1.53,1.248-1.604.713-.149.758-.193.758-.668,0-.267.223-.891.505-1.381.55-1.01.951-2.599,1.129-4.501.104-1.218.134-1.277.743-1.901.772-.787,2.005-1.456,3.149-1.693.654-.134,1.025-.327,1.56-.817l.713-.639.014-1.396c.014-.891.104-1.634.253-2.05.327-.847.312-1.233-.045-1.961-.208-.401-.282-.743-.223-1.069.059-.327,0-.698-.208-1.144-.163-.371-.312-.891-.312-1.159,0-.327-.119-.579-.371-.802-.817-.713-.267-1.975.965-2.198,1.218-.223,1.456-.386,1.649-1.04.149-.475.46-.876,1.367-1.678.639-.579,1.5-1.471,1.901-1.99.817-1.055,1.797-1.693,3.015-1.961.654-.149,1.025-.371,1.99-1.218,1.233-1.069,1.352-1.248,1.441-2.154.029-.416.253-.743,1.01-1.515,1.292-1.352,1.5-1.782,1.367-2.837-.059-.46-.089-1.53-.074-2.391.089-5.05.104-5.273.356-5.778.342-.653.208-1.129-.475-1.56-1.456-.936-2.109-1.931-2.109-3.238,0-.312-.134-.847-.282-1.188-.164-.357-.357-1.144-.446-1.753-.178-1.173-.089-1.782.342-2.406.475-.668.223-1.589-.639-2.406-.535-.52-.579-.921-.164-1.723.357-.713.728-.921,1.619-.951q.683-.014.728-.564c.059-.728-.163-1.114-.713-1.233-.52-.119-.55-.267-.164-.772.164-.193.342-.668.386-1.055.193-1.574.238-1.678.906-2.347.357-.371.654-.757.654-.876,0-.104.431-.654.965-1.203.535-.55.965-1.114.965-1.248,0-.282,1.322-1.827,2.436-2.822.401-.371.995-1.069,1.322-1.56,1.173-1.753,4.486-4.917,6.12-5.852,1.173-.668,1.723-1.203,2.08-2.02.253-.564.713-1.099,1.812-2.109,1.515-1.396,1.753-1.768,2.184-3.312.149-.535.475-1.129.951-1.708.936-1.159,1.099-1.471,1.233-2.391.059-.431.208-.995.342-1.263.119-.282.327-.802.46-1.144.267-.802,1.56-3.119,2.273-4.085.698-.966.906-1.604.921-2.852,0-.609.104-1.188.223-1.411.119-.208.208-.639.208-.965s-.089-.758-.208-.965c-.119-.208-.208-.579-.223-.832,0-.46-.386-.951-.728-.951-.104,0-.431.163-.728.371-.951.654-2.837,1.307-3.476,1.203-.371-.059-.787,0-1.307.208-.416.163-1.069.297-1.471.297-.624,0-.787.074-1.263.535l-.564.55-1.203-.089c-1.069-.089-1.352-.059-2.584.342-1.604.52-2.703.579-3.06.178-.134-.149-.357-.609-.49-1.04-.327-.98-.639-1.277-1.396-1.248-.431.014-.624-.045-.728-.238-.208-.386.074-.772.564-.772.55,0,.817-.327.683-.847-.045-.238-.134-.668-.178-.98-.059-.475-.163-.609-.564-.787-.282-.104-.55-.357-.609-.535-.059-.193-.297-.624-.52-.966-.238-.342-.431-.683-.431-.758,0-.253-.52-.594-1.188-.772-.371-.089-.772-.193-.921-.238-.134-.045-.342-.327-.46-.624-.223-.55-1.307-1.589-2.258-2.183-.238-.163-.698-.505-1.01-.772-.297-.267-.639-.49-.758-.49-.356,0-.861-.772-.772-1.188.119-.579-.668-3.803-1.277-5.199-.49-1.144-.52-1.188-1.025-1.188-.371,0-.446-.074-.52-.446-.074-.342-.178-.446-.431-.446-1.04,0-1.708-1.471-1.708-3.758,0-1.723-.178-2.525-.921-4.144-.772-1.634-1.352-2.436-1.872-2.54-.995-.208-1.723-1.471-1.367-2.406.089-.223.149-.579.149-.817,0-.342-.074-.46-.371-.535-.401-.104-.668-.461-.668-.921,0-.357-1.114-2.51-1.56-3-.193-.208-.446-.579-.564-.832-.134-.238-.505-.728-.832-1.055-.594-.579-.609-.639-.609-1.604,0-.921-.029-1.025-.46-1.381-1.827-1.604-3.758-5.228-3.119-5.912.074-.074-.193-.847-.668-1.886-.446-.965-.802-1.812-.802-1.872,0-.074.178-.104.416-.074.594.089.282-.029-1.485-.535-1.649-.475-1.901-.46-2.332.059-.104.119-.386.267-.639.312-.297.074-.55.282-.743.609-.163.282-.416.579-.564.654-.401.208-1.173.178-2.035-.075-.416-.119-1.114-.297-1.545-.371-.446-.089-.995-.297-1.218-.46-.238-.178-1.01-.431-1.783-.579-.758-.149-1.485-.327-1.619-.371-.164-.059-.312,0-.446.208-.297.475-.52.386-1.025-.431-.238-.401-.564-.758-.698-.802-.134-.029-1.025-.104-1.961-.163-2.198-.119-2.228-.134-2.228-.728,0-.579-.371-.98-1.055-1.114-.327-.059-.564-.238-.728-.535-.371-.683-1.01-.683-1.768,0-.401.356-.906.624-1.574.817-1.173.342-1.337.46-1.56,1.114-.134.401-.104.639.149,1.352.164.475.297,1.025.297,1.218,0,.639-.46,1.367-1.114,1.738-.861.505-1.381.475-2.243-.149-1.5-1.084-1.574-1.114-2.54-1.114-.876,0-1.56-.193-3.416-.966-.564-.253-1.129-.98-1.381-1.782-.386-1.218-.639-1.396-2.347-1.515-1.069-.089-1.173-.119-1.634-.609-.431-.446-.668-.55-1.56-.713-.594-.104-1.367-.193-1.738-.208-1.129-.014-1.768-.253-2.109-.832-.312-.52-.49-.594-.847-.371-.149.104-.357.029-.654-.223-.238-.193-.475-.357-.55-.357-.059,0-.193-.193-.297-.431-.253-.624.059-1.218.743-1.441.327-.104.564-.312.668-.564.089-.208.312-.52.49-.683.55-.505.446-1.233-.267-1.931-.52-.505-.594-.668-.594-1.233,0-.52.104-.787.535-1.337.505-.654.564-.995.149-.995-.104,0-.342.164-.535.371l-.357.371-.743-.728c-1.367-1.307-1.634-1.337-2.896-.253h.002Z" sodipodi:nodetypes="ccccccsccccccccccsccccscccccccccccscccccccccccscscsccccccscscccccccccccccccccsssccccccccccccccccccccscscccssscccccccccscsccsccccccccccccccccccccsccccccscccccccsccccccccccccccccscccccccccscscccccccccccccscccccccccccssscccccccccccccsscscccscccccccsscccccscccccsccscsscccscscccscccscccccccccccccccsccccccsccscccccccccscccccscsccccc"/>
      <path id="path3836-2-1-5-9-0" class="st1" d="M333.931,461.86l4.177,1.63c4.981,1.362,8.916,9.005,13.911,10.466,12.152,3.554,25.598,4.575,37.961,1.377-1.131,2.321-4.066,3.924-6.223,5.226-6.383,3.855-13.514,5.732-20.847,6.685-17.153,2.229-34.788-1.3-51.34-5.652-9.682-2.546-20.29-7.378-30.493-6.17-5.719.677-11.782,2.355-15.815,6.761-2.121,2.317-3.682,5.328-2.189,8.396,1.675,3.442,5.779,5.601,9.291,3.424,2.224-1.378,3.541-3.804,5.601-5.39,3.803-2.93,9.942-3.02,12.767,1.344,4.183,6.463-3.019,13.08-9.344,13.367-13.322.605-25.173-8.345-37.649-11.63-2.729-.718-5.587-.969-8.401-.776-10.055.69-28.551,7.802-33.324-5.94-.564-1.624-.592-3.281-.592-4.978,0-2.709.512-5.178,1.245-7.779h.311c.023,8.218,4.749,14.332,13.38,11.548,10.405-3.356,26.663-17.926,45.667-15.356h0M404.915,449.507c-2.126,14.184-20.232,18.78-32.049,15.869v-.311c12.192-.557,21.489-11.001,32.049-15.558M359.798,499.914c-2.808,5.179-10.867,6.534-16.18,6.534-11.412,0-22.765-3.365-32.671-9.024-3.327-1.901-7.389-3.979-9.646-7.156,4.817.649,9.613,2.534,14.313,3.77,9.138,2.402,18.31,4.5,27.693,5.653,5.241.644,11.29,1.461,16.491.223h0Z" sodipodi:nodetypes="ccscssssssssssscssccsccccccssscssss"/>
      <g id="g3199-81-2-5-3-5-0-1-85-1-4">
        <path id="path2304-0-8-5-0-5-1-1-6-8-0-5" class="st0" d="M266.138,473.199l-77.303-78.504,4.804-1.31,18.114,16.199s5.026,1.798,15.453,4.881c10.427,3.084,25.175,6.758,27.634,7.424,4.918,1.332,8.28,2.156,12.445,3.132,2.42.567,7.288,1.583,7.288,1.583,0,0,10.919,2.839,11.055,2.893.136.055,15.204,3.003,15.204,3.003l13.184,2.648,8.68,1.228,5.951.874,8.489.737,7.916.191,9.936.218h8.189l8.68-.491,8.626-.491,10.1-1.256,4.913-.737,5.787-1.501,3.439-2.293,1.72-1.146-4.531,12.475-9.199,3.63-6.879,2.102-11.601,3.194-12.747,3.63-18.971,4.258-19.899,4.204-37.805,6.769-18.671,2.457Z" sodipodi:nodetypes="ccccssacccccccccccccccccccccccccc"/>
        <path id="path2306-4-48-7-9-2-8-8-0-5-2-4" class="st3" d="M406.441,430.48l-11.77.241-5.808,1.097s-8.848,1.532-9.226,1.583c-1.212.164-10.953.893-12.041.98-2.809.225-8.814.057-8.814.057-.49.04-28.77.491-28.77.491l-12.864-.348c-.273-.012-5.623-.273-5.623-.273l-2.511-.055,18.432,2.777,9.445.928,16.787.382,9.526.055,17.961-1.01,12.884-1.665,7.234-1.802,5.159-3.439" sodipodi:nodetypes="cccssscscccccccccc"/>
      </g>
    </g>
  </g>
</svg>